<svg width="254.5" height="225" xmlns="http://www.w3.org/2000/svg" xml:space="preserve" version="1.1">

 <g>
  <title>Layer 1</title>
  <g stroke="null" id="svg_1">
   <g stroke="null" id="svg_2">
    <g stroke="null" id="svg_3">
     <g stroke="null" id="svg_4">
      <path stroke="null" id="svg_5" d="m21.37667,94.12527c-0.48569,0 -0.60711,-0.24285 -0.36427,-0.60711l2.54988,-3.27842c0.24285,-0.36427 0.84996,-0.60711 1.33565,-0.60711l43.34797,0c0.48569,0 0.60711,0.36427 0.36427,0.72854l-2.06419,3.15699c-0.24285,0.36427 -0.84996,0.72854 -1.21423,0.72854l-43.95508,-0.12142z"/>
     </g>
    </g>
   </g>
   <g stroke="null" id="svg_6">
    <g stroke="null" id="svg_7">
     <g stroke="null" id="svg_8">
      <path stroke="null" id="svg_9" d="m3.04181,105.29618c-0.48569,0 -0.60711,-0.24285 -0.36427,-0.60711l2.54988,-3.27842c0.24285,-0.36427 0.84996,-0.60711 1.33565,-0.60711l55.36883,0c0.48569,0 0.72854,0.36427 0.60711,0.72854l-0.97138,2.91415c-0.12142,0.48569 -0.60711,0.72854 -1.09281,0.72854l-57.43302,0.12142z"/>
     </g>
    </g>
   </g>
   <g stroke="null" id="svg_10">
    <g stroke="null" id="svg_11">
     <g stroke="null" id="svg_12">
      <path stroke="null" id="svg_13" d="m32.42615,116.46708c-0.48569,0 -0.60711,-0.36427 -0.36427,-0.72854l1.69992,-3.03557c0.24285,-0.36427 0.72854,-0.72854 1.21423,-0.72854l24.28458,0c0.48569,0 0.72854,0.36427 0.72854,0.84996l-0.24285,2.91415c0,0.48569 -0.48569,0.84996 -0.84996,0.84996l-26.47019,-0.12142z"/>
     </g>
    </g>
   </g>
   <g stroke="null" id="svg_14">
    <g stroke="null" id="CXHf1q_5_">
     <g stroke="null" id="svg_15">
      <g stroke="null" id="svg_16">
       <path stroke="null" id="svg_17" d="m158.4631,91.93966c-7.64964,1.94277 -12.87083,3.39984 -20.39904,5.34261c-1.82134,0.48569 -1.94277,0.60711 -3.52126,-1.21423c-1.82134,-2.06419 -3.15699,-3.39984 -5.70688,-4.61407c-7.64964,-3.76411 -15.05644,-2.6713 -21.97754,1.82134c-8.25676,5.34261 -12.50656,13.23509 -12.38513,23.07035c0.12142,9.71383 6.79968,17.72774 16.39209,19.06339c8.25676,1.09281 15.17786,-1.82134 20.64189,-8.01391c1.09281,-1.33565 2.06419,-2.79273 3.27842,-4.49265c-4.37122,0 -9.83525,0 -23.43462,0c-2.54988,0 -3.15699,-1.5785 -2.30703,-3.64269c1.5785,-3.76411 4.49265,-10.0781 6.19257,-13.23509c0.36427,-0.72854 1.21423,-1.94277 3.03557,-1.94277c6.19257,0 29.02007,0 44.19793,0c-0.24285,3.27842 -0.24285,6.55684 -0.72854,9.83525c-1.33565,8.74245 -4.61407,16.75636 -9.95668,23.79889c-8.74245,11.53517 -20.1562,18.69912 -34.60552,20.64189c-11.89944,1.5785 -22.94892,-0.72854 -32.66276,-8.01391c-8.98529,-6.79968 -14.08505,-15.78497 -15.42071,-26.95588c-1.5785,-13.23509 2.30703,-25.13454 10.32095,-35.5769c8.62102,-11.29233 20.03478,-18.45628 33.99841,-21.00616c11.41375,-2.06419 22.34181,-0.72854 32.17706,5.94972c6.43541,4.2498 11.04948,10.0781 14.08505,17.12063c0.72854,1.09281 0.24285,1.69992 -1.21423,2.06419z"/>
      </g>
      <g stroke="null" id="svg_18">
       <path stroke="null" id="svg_19" d="m198.65408,159.08651c-11.04948,-0.24285 -21.12758,-3.39984 -29.62718,-10.68521c-7.16395,-6.19257 -11.6566,-14.08505 -13.11367,-23.43462c-2.18561,-13.72079 1.5785,-25.86307 9.83525,-36.66971c8.86387,-11.6566 19.54908,-17.72774 33.99841,-20.27762c12.38513,-2.18561 24.04173,-0.97138 34.60552,6.19257c9.59241,6.55684 15.54213,15.42071 17.12063,27.0773c2.06419,16.39209 -2.6713,29.74861 -13.96363,41.16236c-8.01391,8.13533 -17.84916,13.23509 -29.14149,15.54213c-3.27842,0.60711 -6.55684,0.72854 -9.71383,1.09281zm28.89865,-49.05484c-0.12142,-1.5785 -0.12142,-2.79273 -0.36427,-4.00696c-2.18561,-12.02087 -13.23509,-18.82055 -24.77027,-16.14924c-11.29233,2.54988 -18.5777,9.71383 -21.249,21.12758c-2.18561,9.47098 2.42846,19.06339 11.17091,22.94892c6.67826,2.91415 13.35652,2.54988 19.79193,-0.72854c9.59241,-4.97834 14.81359,-12.7494 15.42071,-23.19177z"/>
      </g>
     </g>
    </g>
   </g>
  </g>
 </g>
</svg>