<svg viewBox="0 0 1536 1024" width="48" height="32" xmlns="http://www.w3.org/2000/svg" xmlns:xlink="http://www.w3.org/1999/xlink">
    <path fill="currentColor" d="M538 542 770 976v-43L561 542 770 56v920l233-434L770 5zM983 532l6 10-6 10H770v-20zM552 552h218v-20H552zM267 973l6 10h11l105-182 368 221-490-28L7 576l492 15 258 431-37-22-233-389-438-14 323 194zM481 603 372 791l17 10 109-188zM1270 973l-6 10h-11l-105-182-368 221 490-28 260-418-492 15-258 431 37-22 233-389 438-14-323 194zM1056 603l109 188-17 10-109-188z" />
</svg>